inDegrees=no
num_controls=7
num_derivatives=13
num_iterations=32
num_multipliers=7
num_parameters=0
num_slacks=7
num_states=26
objective=0.426625
objective_accelerations=0.057859
objective_balance=0.001117
objective_effort=0.015473
objective_height=0.346130
objective_ligament=0.006046
solver_duration=468.781378
status=Solve_Succeeded
success=true
DataType=double
version=3
OpenSimVersion=4.5
endheader
time	/jointset/ground_pelvis/pelvis_tilt/value	/jointset/ground_pelvis/pelvis_tx/value	/jointset/ground_pelvis/pelvis_ty/value	/jointset/hip_l/hip_flexion_l/value	/jointset/hip_l/hip_adduction_l/value	/jointset/hip_l/hip_rotation_l/value	/jointset/back/lumbar_extension/value	/jointset/patellofemoral_l/patellar_flexion_l/value	/jointset/knee_l/knee_flexion_l/value	/jointset/knee_l/knee_adduction_l/value	/jointset/knee_l/knee_rotation_l/value	/jointset/ankle_l/ankle_angle_l/value	/jointset/subtalar_l/subtalar_angle_l/value	/jointset/ground_pelvis/pelvis_tilt/speed	/jointset/ground_pelvis/pelvis_tx/speed	/jointset/ground_pelvis/pelvis_ty/speed	/jointset/hip_l/hip_flexion_l/speed	/jointset/hip_l/hip_adduction_l/speed	/jointset/hip_l/hip_rotation_l/speed	/jointset/back/lumbar_extension/speed	/jointset/patellofemoral_l/patellar_flexion_l/speed	/jointset/knee_l/knee_flexion_l/speed	/jointset/knee_l/knee_adduction_l/speed	/jointset/knee_l/knee_rotation_l/speed	/jointset/ankle_l/ankle_angle_l/speed	/jointset/subtalar_l/subtalar_angle_l/speed	/forceset/tau_hip_flexion_l	/forceset/tau_hip_adduction_l	/forceset/tau_hip_rotation_l	/forceset/tau_knee_flexion_l	/forceset/tau_ankle_angle_l	/forceset/tau_subtalar_angle_l	/forceset/tau_lumbar_extension	lambda_cid13_p0	lambda_cid13_p1	lambda_cid13_p2	lambda_cid13_p3	lambda_cid13_p4	lambda_cid13_p5	lambda_cid14_p0	/jointset/ground_pelvis/pelvis_tilt/accel	/jointset/ground_pelvis/pelvis_tx/accel	/jointset/ground_pelvis/pelvis_ty/accel	/jointset/hip_l/hip_flexion_l/accel	/jointset/hip_l/hip_adduction_l/accel	/jointset/hip_l/hip_rotation_l/accel	/jointset/back/lumbar_extension/accel	/jointset/patellofemoral_l/patellar_flexion_l/accel	/jointset/knee_l/knee_flexion_l/accel	/jointset/knee_l/knee_adduction_l/accel	/jointset/knee_l/knee_rotation_l/accel	/jointset/ankle_l/ankle_angle_l/accel	/jointset/subtalar_l/subtalar_angle_l/accel	gamma_cid13_p0	gamma_cid13_p1	gamma_cid13_p2	gamma_cid13_p3	gamma_cid13_p4	gamma_cid13_p5	gamma_cid14_p0
1	-0.4497350607943856	-0.000964593905018233	0.5967319725337961	1.691040209355752	-0.3484050021107465	0.1476317007940253	-0.4362688101155197	1.50253836695263	1.502538366952638	0.04397110504832451	-0.1743857777352487	0.4348850359862599	0.2459553567453162	-0.1368647191642972	0.005524864524315622	0.04426857279230812	-0.01189672405115754	-0.003985897795419913	-0.05703363092316024	-0.001419603563010617	-0.1819519606720516	-0.181951960672052	-0.01909059194286125	-2.445392818022134e-05	-0.04928851709810568	-0.0360067792746773	-0.2348704089701714	0.0857430138946037	-0.008193431249890528	-0.2952717226236691	-0.01019129645336938	-0.02004599702350339	0.2060552267764217	-39.71765403154541	26.83112676216696	-17.31845379968314	2.192476609747264	-541.9631054795163	-27.44906446397939	-0.02367773790076324	1.386638567737534	0.281802417468872	1.993537488035964	-6.576649070489495	-0.2679189212878312	-1.597500258109445	0.003530586116363624	-5.561910735929991	-5.561910735929995	-0.8571614682873713	-0.0262970839585839	-0.855140689934883	-0.9346479785720478	-7.131392445530368e-09	-1.143691625262352e-07	-4.221404280276323e-08	-5.769634001370853e-09	-8.488625381932351e-09	-1.278128533445421e-07	8.517556461227855e-10
1.01	-0.4510345867562671	-0.0008952046199914672	0.5972741615863688	1.690592932330779	-0.3484576423582783	0.1469830879789081	-0.4362822748317243	1.500441138888062	1.500441138888057	0.04373670869878739	-0.1743858112269064	0.4343494598288754	0.2455496360378284	-0.1229797277087366	0.008364356184244146	0.06416451892145245	-0.077607007357304	-0.006533000399428742	-0.07267192283451152	-0.001310785184559638	-0.2374864158397247	-0.2374864158397256	-0.02778706782568701	3.164104656631683e-05	-0.05782932504543599	-0.04511740739809318	-0.23539226594464	0.0857054856876933	-0.008198496829104668	-0.2941243632842909	-0.01077055467079958	-0.01996950830851175	0.2063494702278645	-39.85017133780991	26.74882491323251	-17.22276518743479	2.11748062393151	-541.7933370521015	-27.39143402923356	-0.02369553923279081	1.398540684285561	0.2867246735795792	1.986912736709725	-6.575467655790776	-0.2467225937043887	-1.54445130372726	0.008940640248755155	-5.548127377485002	-5.548127377485191	-0.8756623443822128	0.0236260257960428	-0.8539507095488854	-0.896247347529636	-8.444570818518122e-09	-1.454931630736117e-07	-5.361119046083584e-08	-1.204458279814364e-08	-1.304633809867504e-08	-1.523358867783206e-07	-3.360482258859325e-10
1.02	-0.4521934405536374	-0.0007970799917014606	0.5980151680125046	1.689487102533705	-0.3485354769646087	0.1461786007154764	-0.4362957747287841	1.497788783377757	1.497788783377749	0.04341539325118514	-0.174384871121293	0.4337283956195423	0.2450534136254432	-0.1087302862603448	0.01127193317696363	0.08403204750486817	-0.1436072784679942	-0.009024769553301695	-0.08820852058902252	-0.001426639744506526	-0.2929774498193646	-0.2929774498193659	-0.03647441155260808	0.000170265525512647	-0.06638612748944649	-0.05410712025363527	-0.2359141229191656	0.0856679574807393	-0.008203562408489896	-0.2929770039449175	-0.01134981288822371	-0.019893019593588	0.2066437136792487	-39.98475221374814	26.66386812980446	-17.12320778873037	2.032760648187775	-541.7351719473641	-27.33521222960556	-0.02371507929309068	1.459528566303977	0.2954194840268628	1.987853978890225	-6.634646631398103	-0.2568522312605519	-1.577161426741297	-0.04140400156202418	-5.553226498323387	-5.553226498323411	-0.8553350371064451	-0.009791183118515692	-0.8583395892713132	-0.9104649249973529	-9.35747826821933e-09	-1.807971846502062e-07	-6.444058634356731e-08	-1.982967861998882e-08	-1.668560717981523e-08	-1.807687914100783e-07	-1.897167694809401e-09
1.03	-0.4532085998748984	-0.0006695236968032596	0.5989545354527458	1.687720747671986	-0.3486380322903383	0.1452193491534456	-0.4363105720341266	1.494581842338101	1.49458184233809	0.04300709180271112	-0.1743824126878354	0.4330214991829239	0.2444676722931454	-0.09430200492641087	0.01425230301172139	0.1038197062125255	-0.2096211738809104	-0.0114855281996058	-0.1036154684305623	-0.001472993405408791	-0.3483929364413375	-0.3483929364413401	-0.04520108020471812	0.0003067953474923873	-0.07501369781781556	-0.06304391848933941	-0.2363093776132281	0.08563452906508261	-0.008193099625453906	-0.2915262388283926	-0.01198704157845114	-0.01979061018484421	0.2069035760343244	-40.11158064126182	26.55060205868147	-17.0012103966314	1.933511764280079	-541.3897051859766	-27.25801153163754	-0.02374322869867848	1.434412294262124	0.3012867406848044	1.970957581930595	-6.578384753266882	-0.2405568549239361	-1.518527981355552	0.02272314334652518	-5.533035791850446	-5.533035791850751	-0.8836342441995763	0.02315334889038555	-0.8680584362957956	-0.8856595261547053	-1.026630132074414e-08	-2.161438595026092e-07	-7.526418884083609e-08	-2.763018410535514e-08	-2.031550438712273e-08	-2.092415926867133e-07	-3.462096506558533e-09
1.04	-0.4540794895073634	-0.0005117755020614751	0.600091126633109	1.685295529104695	-0.3487651690372638	0.1441068148093046	-0.4363240380377553	1.490821281222683	1.490821281222685	0.04251106337477655	-0.1743790332993298	0.4322277085067044	0.243792488527828	-0.0798763484994983	0.01731031314568026	0.123476795529254	-0.2753800195749762	-0.01394105379022671	-0.1188650770119061	-0.00116037939825954	-0.4037014649719656	-0.4037014649719695	-0.05401980745429918	0.0003544565308472668	-0.08376497541323764	-0.07199560685695082	-0.236704632307474	0.08560110064931582	-0.00818263684234574	-0.2900754737118711	-0.01262427026867017	-0.01968820077628016	0.2071634383892074	-40.2407273139315	26.4347487849945	-16.87538149100284	1.824497097545695	-541.1572760829899	-27.18338620857577	-0.02377313184803784	1.459003584899889	0.310947543866885	1.961740100704427	-6.583636687627858	-0.255805620123809	-1.545693574701976	0.03038953204957874	-5.531834880054491	-5.531834880054518	-0.8737467566006824	-0.02756491084335011	-0.8830810426822993	-0.9134429513788546	-1.077189002561492e-08	-2.46837478590619e-07	-9.163492933083068e-08	-3.454019646579875e-08	-2.305016954956562e-08	-2.383571138069361e-07	-3.477063570536176e-09
1.05	-0.454806313010312	-0.000323028392376366	0.6014235070984321	1.682214413706644	-0.3489167306105376	0.1428423367983955	-0.4363320931468204	1.486508341580288	1.486508341580298	0.04192683318139218	-0.1743755047555089	0.4313457547303914	0.2430278930034398	-0.0655085170140547	0.02045506343214577	0.1429645860632424	-0.3407574737336646	-0.01636013126164148	-0.1340231926282542	-0.0003394421495351301	-0.458851532413424	-0.4588515324134268	-0.06280201330512905	0.0003484343814101183	-0.09264935175445202	-0.08090826131110723	-0.2370176064387562	0.08560686142743727	-0.008162339221738084	-0.2882549664421606	-0.01339664715277691	-0.01956252051873773	0.2074038480697577	-40.38701862692496	26.29328461916344	-16.72433108265084	1.719157125514206	-540.629103664553	-27.07588373019003	-0.02381080044482212	1.422645811532856	0.3186236125995263	1.937086630172735	-6.501964385730479	-0.2332669504054725	-1.499788979517837	0.124625867632769	-5.501352323926699	-5.501352323926604	-0.8768517792809307	0.01241851974411317	-0.8946667460454784	-0.8778338142533061	-1.126487765712151e-08	-2.773856896859915e-07	-1.081790178830979e-07	-4.142238091608853e-08	-2.575685871060649e-08	-2.674927199222709e-07	-3.44359432989597e-09
1.06	-0.4553900636221792	-0.000102356811514713	0.6029497230891803	1.678482090845874	-0.3490921445864842	0.1414264939464453	-0.436328602874459	1.481644949333931	1.481644949333925	0.04125550207354351	-0.1743721285558041	0.4303742470274425	0.2421746395101425	-0.05126177028193515	0.02369520738098891	0.1622439006142777	-0.4056215121220023	-0.01871153432323124	-0.1491380452212639	0.001148696953143606	-0.5137919857642984	-0.5137919857643001	-0.07143999035425089	0.0003239877015019045	-0.1016757607438562	-0.08972720063803233	-0.2373305805698421	0.08561262220547183	-0.008142041601084875	-0.2864344591724681	-0.01416902403693754	-0.01943684026137084	0.2076442577505103	-40.53594882155648	26.14930685334614	-16.56948086244571	1.604343915841362	-540.2158471856144	-26.97240359296997	-0.02385039249492732	1.434786634235252	0.3300262763422089	1.920044904113767	-6.480953533557615	-0.2422707381586968	-1.537040970034129	0.1638299028410206	-5.489912061937742	-5.489912061937751	-0.84490099625913	-0.03124981693738745	-0.9114875723206496	-0.8946999259326107	-1.375665518453823e-08	-3.00111971979416e-07	-1.121404558179016e-07	-4.422120448726193e-08	-3.10435093098495e-08	-2.722190783968569e-07	-6.209288934177587e-09
1.07	-0.4558305328939206	0.0001513429896317861	0.6046677431614541	1.674102237266329	-0.3492907791277947	0.1398597129813345	-0.4363083370608771	1.476233461936699	1.476233461936683	0.04049859711001774	-0.1743691232032177	0.4293121054158967	0.2412338212942195	-0.03670888785690436	0.02707586317813639	0.1813309691843742	-0.4704117521297502	-0.02100937263125137	-0.1642018615909763	0.002870090596649549	-0.5684441898535323	-0.568444189853527	-0.07991970897118529	0.0002708174334011214	-0.1107416056788037	-0.09840656709694569	-0.237504013895335	0.08562694642253114	-0.00810490395996679	-0.2843586241085134	-0.01484371344377554	-0.01929385443736194	0.2077817795484346	-40.62562183287885	25.9782456791698	-16.39981336120689	1.383165145986507	-539.5119595359859	-26.84794127380195	-0.02388982087214209	1.484015184611703	0.3467423832405184	1.898658764817713	-6.487445122856209	-0.2226138073588473	-1.488633957134963	0.1711378191427957	-5.443677142253788	-5.443677142252884	-0.8463480784836195	0.006668585203676351	-0.9025077119671381	-0.850008289389281	-1.635475132343954e-08	-3.224221942301837e-07	-1.154326038262444e-07	-4.680282801167381e-08	-3.646739190048627e-08	-2.756470726352327e-07	-9.123875232338041e-09
1.08	-0.4561217781138254	0.0004397807791169085	0.6065757581057007	1.669072604108974	-0.3495122067382475	0.1381427774551958	-0.436271888566077	1.470277291986605	1.470277291986594	0.03965752680361848	-0.1743668457098973	0.4281596304034461	0.2402071187569993	-0.02141695991286786	0.03064280504871346	0.2002428750088319	-0.5355774276764245	-0.02327014814864496	-0.1791689574284981	0.004385233201640574	-0.6227284963362776	-0.6227284963362655	-0.08827305895106397	0.0001784158433123108	-0.1197424409291734	-0.1069040648966006	-0.2376774472210113	0.0856412706394595	-0.008067766318532257	-0.2822827890445588	-0.01551840285061512	-0.01915086861358333	0.2079193013461657	-40.71834903128462	25.80487240996761	-16.22652533550145	1.152240080742936	-538.9248104715438	-26.72854580277162	-0.02393125308605947	1.582595738036584	0.3672834910279259	1.88501235498599	-6.556040641342773	-0.2348581800332786	-1.517696863595778	0.1225796951375581	-5.416332540640081	-5.416332540640098	-0.8196272688480664	-0.03909608133477195	-0.8984856354054583	-0.8583261940809033	-1.613635819377549e-08	-3.440855198833124e-07	-1.137715820287595e-07	-5.228205657623133e-08	-3.713349329728145e-08	-2.919782555468416e-07	-1.10904861719494e-08
